# xmcd
#
# Track frame offsets:
#	183
#	15758
#	39983
#	69783
#
# Disc length: 1153 seconds
# Revision: 0
# Processed by: cddbd v1.5.2PL0 Copyright (c) Steve Scherf et al.
# Submitted via: dBpowerAMP V12.0
#
DISCID=1c047f04
DTITLE=West End feat. Sybil - The Love I Lost
DYEAR=1993
DGENRE=House
TTITLE0=The Love I Lost [7" Version]
TTITLE1=The Love I Lost [12" Club Mix]
TTITLE2=The Love I Lost [Unrequited Mix]
TTITLE3=Sybil-It
EXTD=
EXTT0=
EXTT1=
EXTT2=
EXTT3=
PLAYORDER=
